<?xml version="1.0" encoding="UTF-8"?>
<svg xmlns="http://www.w3.org/2000/svg" xmlns:xlink="http://www.w3.org/1999/xlink" width="84px" height="80px" viewBox="0 0 84 80" version="1.1">
<g id="surface1">
<path style=" stroke:none;fill-rule:nonzero;fill:rgb(61.176473%,28.235295%,21.960784%);fill-opacity:1;" d="M 68.003906 23.203125 L 68.210938 23.203125 L 68.167969 23.574219 L 68.046875 23.777344 L 67.226562 24.3125 L 66.570312 24.722656 L 64.886719 25.789062 L 64.1875 26.242188 L 63.410156 26.734375 L 61.890625 27.722656 L 60.90625 28.335938 L 60.210938 28.789062 L 58.652344 29.773438 L 57.953125 30.226562 L 57.175781 30.71875 L 56.476562 31.171875 L 55.453125 31.828125 L 53.523438 33.058594 L 52.746094 33.550781 L 52.046875 34.003906 L 50.242188 35.152344 L 49.546875 35.605469 L 48.316406 36.386719 L 47.289062 37.042969 L 46.59375 37.496094 L 45.035156 38.480469 L 44.335938 38.933594 L 43.4375 39.507812 L 42.65625 40 L 41.835938 40.535156 L 41.054688 41.027344 L 40.03125 41.683594 L 38.101562 42.914062 L 37.324219 43.410156 L 36.625 43.859375 L 35.601562 44.515625 L 34.617188 45.132812 L 34 45.542969 L 33.34375 45.953125 L 31.867188 46.898438 L 31.089844 47.390625 L 30.0625 48.050781 L 26.332031 50.429688 L 25.632812 50.882812 L 22.679688 52.773438 L 20.875 53.921875 L 20.179688 54.375 L 19.195312 54.988281 L 18.25 55.605469 L 17.265625 56.222656 L 16.570312 56.671875 L 15.789062 57.167969 L 15.09375 57.617188 L 14.070312 58.273438 L 13.164062 58.851562 L 12.960938 58.972656 L 12.878906 58.972656 L 12.960938 58.769531 L 13.414062 57.988281 L 14.027344 56.878906 L 14.601562 55.894531 L 15.132812 54.949219 L 17.59375 50.636719 L 17.84375 50.226562 L 18.085938 49.773438 L 18.664062 48.746094 L 19.195312 47.804688 L 20.179688 46.078125 L 20.710938 45.132812 L 21.203125 44.3125 L 21.453125 43.859375 L 22.066406 42.75 L 22.640625 41.765625 L 23.050781 41.027344 L 23.625 40.042969 L 24.242188 38.933594 L 24.8125 37.945312 L 25.183594 37.289062 L 25.71875 36.34375 L 26.085938 35.6875 L 26.660156 34.703125 L 27.195312 33.757812 L 27.523438 33.183594 L 27.644531 32.976562 L 28.015625 33.183594 L 29.078125 33.882812 L 29.695312 34.292969 L 30.269531 34.660156 L 31.375 35.402344 L 32.03125 35.8125 L 33.757812 36.960938 L 33.714844 37.125 L 32.566406 39.097656 L 31.867188 40.289062 L 31.296875 41.273438 L 30.761719 42.175781 L 30.71875 42.300781 L 31.375 41.972656 L 32.320312 41.476562 L 33.46875 40.902344 L 34.25 40.492188 L 35.148438 40.042969 L 35.929688 39.628906 L 37.28125 38.933594 L 37.9375 38.605469 L 39.292969 37.90625 L 40.195312 37.453125 L 40.976562 37.042969 L 41.875 36.589844 L 43.4375 35.769531 L 44.09375 35.441406 L 44.871094 35.03125 L 46.675781 34.128906 L 47.453125 33.714844 L 48.601562 33.140625 L 49.382812 32.730469 L 50.039062 32.402344 L 51.476562 31.664062 L 52.296875 31.253906 L 52.789062 30.964844 L 53.730469 30.511719 L 55.085938 29.816406 L 56.765625 28.953125 L 58.53125 28.050781 L 59.308594 27.636719 L 60.457031 27.0625 L 61.234375 26.652344 L 62.546875 25.996094 L 63.328125 25.585938 L 63.945312 25.257812 L 65.585938 24.433594 L 66.363281 24.023438 Z M 68.003906 23.203125 "/>
<path style=" stroke:none;fill-rule:nonzero;fill:rgb(61.176473%,27.843139%,21.568628%);fill-opacity:1;" d="M 42.246094 7.269531 L 42.410156 7.433594 L 42.984375 8.460938 L 44.625 11.335938 L 45.199219 12.363281 L 45.773438 13.347656 L 46.347656 14.375 L 46.796875 15.152344 L 47.453125 16.304688 L 48.070312 17.414062 L 48.480469 18.109375 L 49.054688 19.136719 L 51.351562 23.164062 L 51.925781 24.1875 L 52.335938 24.886719 L 52.867188 25.832031 L 53.523438 26.980469 L 54.101562 28.007812 L 54.34375 28.417969 L 54.304688 28.542969 L 51.269531 30.0625 L 50.492188 30.429688 L 49.710938 30.84375 L 49.054688 31.171875 L 48.195312 31.582031 L 47.824219 31.785156 L 47.660156 31.582031 L 47.289062 30.925781 L 46.632812 29.816406 L 46.019531 28.746094 L 45.320312 27.554688 L 44.789062 26.652344 L 44.09375 25.460938 L 43.476562 24.394531 L 42.945312 23.492188 L 42.367188 22.503906 L 42.328125 22.421875 L 42.203125 22.628906 L 41.753906 23.367188 L 40.605469 25.339844 L 40.070312 26.242188 L 39.457031 27.308594 L 37.367188 30.882812 L 36.789062 31.828125 L 36.132812 31.5 L 35.191406 31.046875 L 34.535156 30.71875 L 33.835938 30.347656 L 32.894531 29.898438 L 32.195312 29.527344 L 31.253906 29.074219 L 30.269531 28.582031 L 30.226562 28.417969 L 30.679688 27.597656 L 31.296875 26.570312 L 31.539062 26.078125 L 32.03125 25.214844 L 32.648438 24.148438 L 33.058594 23.449219 L 33.34375 22.957031 L 33.59375 22.503906 L 34.164062 21.476562 L 34.742188 20.492188 L 35.890625 18.4375 L 36.296875 17.742188 L 36.875 16.714844 L 37.445312 15.730469 L 38.0625 14.621094 L 38.472656 13.921875 L 39.007812 12.976562 L 39.578125 11.949219 L 40.070312 11.089844 L 40.6875 10.019531 L 41.261719 8.992188 L 41.796875 8.050781 Z M 42.246094 7.269531 "/>
<path style=" stroke:none;fill-rule:nonzero;fill:rgb(1.568628%,30.19608%,55.686277%);fill-opacity:1;" d="M 56.929688 33.101562 L 57.054688 33.140625 L 57.460938 33.921875 L 58.039062 34.90625 L 58.609375 35.933594 L 59.101562 36.796875 L 59.636719 37.742188 L 60.210938 38.726562 L 60.664062 39.546875 L 61.234375 40.535156 L 61.605469 41.191406 L 62.671875 43.082031 L 63.328125 44.230469 L 63.902344 45.257812 L 64.351562 46.035156 L 65.007812 47.1875 L 65.625 48.253906 L 66.28125 49.40625 L 66.898438 50.511719 L 67.304688 51.210938 L 67.921875 52.320312 L 68.414062 53.183594 L 69.03125 54.25 L 69.601562 55.277344 L 70.179688 56.261719 L 70.75 57.289062 L 71.367188 58.355469 L 71.65625 58.851562 L 71.65625 58.933594 L 71.449219 58.890625 L 70.957031 58.523438 L 70.21875 58.070312 L 69.601562 57.660156 L 68.046875 56.671875 L 67.019531 56.015625 L 66.320312 55.566406 L 64.273438 54.25 L 63.453125 53.714844 L 62.46875 53.101562 L 61.5625 52.527344 L 58.734375 50.71875 L 57.914062 50.183594 L 56.234375 49.117188 L 53.402344 47.308594 L 52.625 46.816406 L 51.804688 46.285156 L 50.121094 45.214844 L 49.421875 44.765625 L 48.644531 44.269531 L 47.945312 43.820312 L 46.140625 42.667969 L 45.445312 42.21875 L 44.664062 41.726562 L 43.96875 41.273438 L 43.558594 40.984375 L 43.679688 40.863281 L 44.132812 40.617188 L 44.914062 40.125 L 45.9375 39.464844 L 46.632812 39.015625 L 47.003906 38.808594 L 47.660156 39.136719 L 48.273438 39.464844 L 49.835938 40.246094 L 50.613281 40.65625 L 52.539062 41.644531 L 53.320312 42.054688 L 53.976562 42.382812 L 53.773438 42.011719 L 53.117188 40.902344 L 52.625 40.042969 L 52.089844 39.136719 L 51.476562 38.070312 L 51.105469 37.453125 L 50.859375 37.085938 L 50.859375 36.960938 L 51.679688 36.46875 L 52.5 35.933594 L 54.304688 34.785156 L 55.085938 34.292969 L 55.78125 33.839844 L 56.640625 33.304688 Z M 56.929688 33.101562 "/>
<path style=" stroke:none;fill-rule:nonzero;fill:rgb(1.568628%,30.19608%,55.686277%);fill-opacity:1;" d="M 42.328125 7.722656 L 42.53125 7.84375 L 42.695312 7.925781 L 43.148438 8.746094 L 44.789062 11.621094 L 45.363281 12.648438 L 45.9375 13.632812 L 46.511719 14.660156 L 46.921875 15.359375 L 48.070312 17.414062 L 48.480469 18.109375 L 49.054688 19.136719 L 51.351562 23.164062 L 51.925781 24.1875 L 52.335938 24.886719 L 52.867188 25.832031 L 53.523438 26.980469 L 54.101562 28.007812 L 54.34375 28.417969 L 54.304688 28.542969 L 51.269531 30.0625 L 50.492188 30.429688 L 49.710938 30.84375 L 49.054688 31.171875 L 48.195312 31.582031 L 47.824219 31.785156 L 47.660156 31.582031 L 47.289062 30.925781 L 46.632812 29.816406 L 46.019531 28.746094 L 45.320312 27.554688 L 44.789062 26.652344 L 44.09375 25.460938 L 43.476562 24.394531 L 42.945312 23.492188 L 42.367188 22.503906 L 42.289062 22.339844 L 42.289062 9.691406 Z M 42.328125 7.722656 "/>
<path style=" stroke:none;fill-rule:nonzero;fill:rgb(1.960784%,30.588236%,55.686277%);fill-opacity:1;" d="M 16.445312 23.203125 L 16.816406 23.328125 L 18.046875 23.941406 L 18.828125 24.351562 L 19.933594 24.929688 L 21 25.460938 L 21.78125 25.871094 L 22.929688 26.449219 L 23.707031 26.859375 L 24.609375 27.308594 L 25.390625 27.722656 L 27.234375 28.664062 L 27.890625 28.992188 L 28.914062 29.527344 L 29.695312 29.9375 L 30.84375 30.511719 L 31.625 30.925781 L 32.523438 31.375 L 33.304688 31.785156 L 34.125 32.195312 L 34.90625 32.609375 L 36.296875 33.304688 L 37.078125 33.714844 L 38.757812 34.578125 L 39.90625 35.152344 L 39.90625 35.234375 L 39.25 35.566406 L 37.898438 36.261719 L 37.242188 36.589844 L 36.953125 36.753906 L 36.503906 36.507812 L 35.601562 35.933594 L 34.65625 35.316406 L 33.921875 34.867188 L 33.101562 34.332031 L 32.195312 33.757812 L 31.5 33.304688 L 28.792969 31.582031 L 28.09375 31.128906 L 27.109375 30.511719 L 26.210938 29.9375 L 25.183594 29.28125 L 24.484375 28.828125 L 23.707031 28.335938 L 21.65625 27.023438 L 20.875 26.53125 L 19.277344 25.503906 L 17.882812 24.597656 L 16.898438 23.984375 L 16.53125 23.695312 L 16.40625 23.449219 Z M 16.445312 23.203125 "/>
<path style=" stroke:none;fill-rule:nonzero;fill:rgb(64.705884%,28.235295%,21.176471%);fill-opacity:1;" d="M 14.476562 65.542969 L 17.1875 65.542969 L 17.882812 65.667969 L 18.375 65.871094 L 18.785156 66.203125 L 18.992188 66.570312 L 19.113281 67.023438 L 19.113281 67.390625 L 18.992188 67.804688 L 18.742188 68.171875 L 18.414062 68.460938 L 18.046875 68.664062 L 17.882812 68.746094 L 18.539062 68.953125 L 19.113281 69.242188 L 19.398438 69.527344 L 19.605469 69.9375 L 19.6875 70.265625 L 19.6875 70.675781 L 19.5625 71.171875 L 19.277344 71.621094 L 18.949219 71.949219 L 18.375 72.277344 L 17.84375 72.445312 L 17.351562 72.527344 L 16.859375 72.566406 L 14.519531 72.566406 L 14.476562 72.527344 Z M 15.832031 66.488281 L 15.789062 66.53125 L 15.789062 68.417969 L 16.898438 68.378906 L 17.265625 68.214844 L 17.59375 67.925781 L 17.71875 67.636719 L 17.757812 67.269531 L 17.636719 66.898438 L 17.351562 66.613281 L 17.0625 66.53125 Z M 15.789062 69.363281 L 15.75 69.570312 L 15.75 71.539062 L 15.832031 71.621094 L 17.101562 71.582031 L 17.59375 71.457031 L 17.921875 71.292969 L 18.210938 70.964844 L 18.335938 70.636719 L 18.335938 70.226562 L 18.128906 69.816406 L 17.84375 69.570312 L 17.554688 69.445312 L 17.351562 69.40625 L 16.324219 69.363281 Z M 15.789062 69.363281 "/>
<path style=" stroke:none;fill-rule:nonzero;fill:rgb(64.705884%,28.235295%,21.176471%);fill-opacity:1;" d="M 26.945312 65.542969 L 29.695312 65.542969 L 30.351562 65.667969 L 30.84375 65.871094 L 31.296875 66.203125 L 31.664062 66.613281 L 31.992188 67.269531 L 32.15625 67.84375 L 32.238281 68.417969 L 32.238281 69.570312 L 32.117188 70.308594 L 31.910156 70.84375 L 31.625 71.335938 L 31.296875 71.746094 L 30.96875 72.03125 L 30.3125 72.363281 L 29.777344 72.484375 L 28.914062 72.566406 L 26.945312 72.566406 Z M 28.257812 66.488281 L 28.21875 66.652344 L 28.21875 71.582031 L 28.257812 71.621094 L 28.957031 71.621094 L 29.53125 71.539062 L 29.941406 71.375 L 30.3125 71.089844 L 30.476562 70.882812 L 30.679688 70.429688 L 30.84375 69.773438 L 30.882812 69.488281 L 30.882812 68.335938 L 30.71875 67.679688 L 30.554688 67.269531 L 30.3125 66.941406 L 29.984375 66.695312 L 29.53125 66.53125 Z M 28.257812 66.488281 "/>
<path style=" stroke:none;fill-rule:nonzero;fill:rgb(64.705884%,28.235295%,21.176471%);fill-opacity:1;" d="M 35.804688 65.460938 L 36.832031 65.460938 L 37.488281 65.625 L 38.144531 65.953125 L 38.59375 66.367188 L 38.964844 66.941406 L 39.210938 67.515625 L 39.335938 67.96875 L 39.414062 68.625 L 39.414062 69.28125 L 39.292969 70.183594 L 39.007812 71.046875 L 38.757812 71.457031 L 38.390625 71.867188 L 38.0625 72.15625 L 37.488281 72.445312 L 36.875 72.609375 L 36.585938 72.648438 L 35.96875 72.648438 L 35.3125 72.527344 L 34.820312 72.320312 L 34.371094 71.992188 L 34 71.621094 L 33.714844 71.171875 L 33.46875 70.59375 L 33.304688 69.9375 L 33.304688 68.460938 L 33.429688 67.804688 L 33.632812 67.1875 L 33.960938 66.570312 L 34.328125 66.160156 L 34.617188 65.914062 L 35.191406 65.625 L 35.5625 65.503906 Z M 36.054688 66.449219 L 35.601562 66.613281 L 35.273438 66.859375 L 35.027344 67.1875 L 34.820312 67.597656 L 34.617188 68.460938 L 34.617188 69.652344 L 34.78125 70.347656 L 34.984375 70.882812 L 35.3125 71.292969 L 35.726562 71.539062 L 36.132812 71.664062 L 36.625 71.664062 L 37.078125 71.5 L 37.488281 71.128906 L 37.734375 70.757812 L 37.9375 70.183594 L 38.0625 69.445312 L 38.0625 68.582031 L 37.980469 67.96875 L 37.816406 67.433594 L 37.609375 67.0625 L 37.324219 66.734375 L 36.996094 66.53125 L 36.710938 66.449219 Z M 36.054688 66.449219 "/>
<path style=" stroke:none;fill-rule:nonzero;fill:rgb(64.705884%,28.235295%,21.176471%);fill-opacity:1;" d="M 9.640625 65.542969 L 10.910156 65.542969 L 11.03125 65.789062 L 11.523438 67.269531 L 12.304688 69.527344 L 12.835938 71.046875 L 13.289062 72.363281 L 13.289062 72.527344 L 13.164062 72.566406 L 11.894531 72.566406 L 11.773438 72.238281 L 11.28125 70.636719 L 11.28125 70.554688 L 9.226562 70.59375 L 8.734375 72.074219 L 8.613281 72.527344 L 8.53125 72.566406 L 7.382812 72.566406 L 7.257812 72.527344 L 7.34375 72.15625 L 7.914062 70.511719 L 8.613281 68.460938 L 9.1875 66.816406 L 9.597656 65.585938 Z M 10.171875 67.351562 L 9.554688 69.363281 L 9.515625 69.570312 L 9.554688 69.609375 L 10.953125 69.609375 L 10.867188 69.242188 L 10.375 67.679688 L 10.253906 67.351562 Z M 10.171875 67.351562 "/>
<path style=" stroke:none;fill-rule:nonzero;fill:rgb(64.705884%,28.235295%,21.176471%);fill-opacity:1;" d="M 42.574219 65.460938 L 43.640625 65.460938 L 44.421875 65.667969 L 44.871094 65.871094 L 44.914062 65.953125 L 44.914062 67.105469 L 44.707031 67.023438 L 44.09375 66.695312 L 43.601562 66.53125 L 42.78125 66.53125 L 42.410156 66.652344 L 42.203125 66.816406 L 42.125 66.816406 L 41.960938 67.144531 L 41.960938 67.554688 L 42.125 67.84375 L 42.410156 68.089844 L 43.273438 68.417969 L 44.007812 68.664062 L 44.664062 68.992188 L 45.078125 69.363281 L 45.320312 69.773438 L 45.40625 70.019531 L 45.445312 70.472656 L 45.363281 70.964844 L 45.117188 71.457031 L 44.75 71.867188 L 44.378906 72.15625 L 43.804688 72.445312 L 43.109375 72.609375 L 42.738281 72.648438 L 42.246094 72.648438 L 41.546875 72.527344 L 40.8125 72.277344 L 40.523438 72.074219 L 40.523438 70.882812 L 40.6875 70.964844 L 41.304688 71.335938 L 41.875 71.582031 L 42.410156 71.664062 L 42.945312 71.621094 L 43.4375 71.417969 L 43.765625 71.171875 L 43.96875 70.84375 L 44.007812 70.675781 L 44.007812 70.308594 L 43.84375 69.980469 L 43.515625 69.691406 L 42.945312 69.445312 L 41.835938 69.074219 L 41.34375 68.828125 L 40.933594 68.460938 L 40.648438 68.050781 L 40.523438 67.636719 L 40.5625 67.105469 L 40.769531 66.570312 L 41.054688 66.203125 L 41.382812 65.914062 L 42.039062 65.585938 Z M 42.574219 65.460938 "/>
<path style=" stroke:none;fill-rule:nonzero;fill:rgb(1.568628%,30.19608%,55.686277%);fill-opacity:1;" d="M 52.046875 65.460938 L 52.992188 65.460938 L 53.566406 65.585938 L 54.265625 65.832031 L 54.304688 65.871094 L 54.34375 67.105469 L 54.140625 67.023438 L 53.484375 66.695312 L 52.992188 66.53125 L 52.460938 66.488281 L 52.007812 66.570312 L 51.679688 66.734375 L 51.433594 67.023438 L 51.351562 67.1875 L 51.351562 67.554688 L 51.597656 67.925781 L 52.007812 68.171875 L 52.828125 68.460938 L 53.566406 68.746094 L 54.179688 69.074219 L 54.46875 69.324219 L 54.757812 69.898438 L 54.835938 70.265625 L 54.835938 70.59375 L 54.714844 71.089844 L 54.507812 71.5 L 54.265625 71.785156 L 53.773438 72.15625 L 53.28125 72.402344 L 52.703125 72.566406 L 52.171875 72.648438 L 51.71875 72.648438 L 50.984375 72.527344 L 50.121094 72.238281 L 49.957031 72.074219 L 49.957031 70.882812 L 50.164062 70.964844 L 50.492188 71.210938 L 51.148438 71.539062 L 51.433594 71.621094 L 51.761719 71.664062 L 52.132812 71.664062 L 52.625 71.539062 L 53.03125 71.292969 L 53.15625 71.253906 L 53.402344 70.757812 L 53.445312 70.636719 L 53.445312 70.347656 L 53.28125 69.980469 L 52.992188 69.734375 L 52.460938 69.488281 L 51.351562 69.117188 L 50.695312 68.789062 L 50.285156 68.417969 L 50.039062 68.007812 L 49.957031 67.722656 L 49.957031 67.1875 L 50.121094 66.652344 L 50.367188 66.285156 L 50.734375 65.953125 L 51.351562 65.625 L 51.761719 65.503906 Z M 52.046875 65.460938 "/>
<path style=" stroke:none;fill-rule:nonzero;fill:rgb(1.568628%,30.19608%,55.686277%);fill-opacity:1;" d="M 74.28125 67.636719 L 74.648438 67.636719 L 75.222656 67.722656 L 75.714844 67.925781 L 76.042969 68.171875 L 76.371094 68.542969 L 76.578125 68.992188 L 76.699219 69.527344 L 76.699219 70.144531 L 76.65625 70.183594 L 73.132812 70.183594 L 73.253906 70.757812 L 73.460938 71.128906 L 73.789062 71.417969 L 74.117188 71.582031 L 74.28125 71.621094 L 74.851562 71.621094 L 75.386719 71.457031 L 75.960938 71.171875 L 76.414062 70.84375 L 76.492188 70.882812 L 76.453125 72.074219 L 76.042969 72.277344 L 75.304688 72.527344 L 74.609375 72.648438 L 74.15625 72.648438 L 73.5 72.527344 L 73.089844 72.363281 L 72.640625 72.03125 L 72.351562 71.746094 L 72.023438 71.171875 L 71.859375 70.59375 L 71.859375 69.816406 L 72.023438 69.15625 L 72.3125 68.664062 L 72.640625 68.296875 L 73.171875 67.925781 L 73.539062 67.761719 L 73.910156 67.679688 Z M 74.15625 68.542969 L 73.789062 68.707031 L 73.296875 69.199219 L 73.253906 69.363281 L 75.429688 69.363281 L 75.386719 69.15625 L 75.140625 68.746094 L 74.894531 68.582031 L 74.773438 68.542969 Z M 74.15625 68.542969 "/>
<path style=" stroke:none;fill-rule:nonzero;fill:rgb(64.705884%,28.235295%,21.176471%);fill-opacity:1;" d="M 20.179688 65.542969 L 21.695312 65.542969 L 22.273438 66.777344 L 22.886719 68.132812 L 22.96875 68.171875 L 23.050781 67.925781 L 24.242188 65.542969 L 25.757812 65.542969 L 25.675781 65.75 L 25.226562 66.570312 L 24.691406 67.472656 L 24.15625 68.417969 L 23.664062 69.242188 L 23.625 69.363281 L 23.585938 71.375 L 23.542969 72.527344 L 23.5 72.566406 L 22.273438 72.566406 L 22.230469 72.363281 L 22.230469 70.347656 L 22.1875 69.28125 L 21.820312 68.582031 L 21.328125 67.722656 L 20.753906 66.695312 L 20.21875 65.707031 Z M 20.179688 65.542969 "/>
<path style=" stroke:none;fill-rule:nonzero;fill:rgb(1.568628%,30.19608%,55.686277%);fill-opacity:1;" d="M 61.890625 67.636719 L 62.261719 67.636719 L 62.875 67.722656 L 63.328125 67.886719 L 63.902344 68.253906 L 64.230469 68.625 L 64.515625 69.199219 L 64.640625 69.773438 L 64.640625 70.429688 L 64.558594 70.925781 L 64.351562 71.457031 L 64.023438 71.867188 L 63.617188 72.238281 L 63.203125 72.445312 L 62.589844 72.609375 L 62.34375 72.648438 L 61.769531 72.648438 L 61.15625 72.527344 L 60.5 72.195312 L 60.085938 71.828125 L 59.800781 71.375 L 59.636719 70.964844 L 59.515625 70.390625 L 59.515625 69.980469 L 59.636719 69.363281 L 59.84375 68.871094 L 60.128906 68.417969 L 60.5 68.089844 L 60.867188 67.886719 L 61.277344 67.722656 Z M 61.8125 68.542969 L 61.484375 68.664062 L 61.195312 68.910156 L 60.992188 69.242188 L 60.828125 69.816406 L 60.828125 70.511719 L 60.90625 70.882812 L 61.15625 71.335938 L 61.441406 71.582031 L 61.8125 71.746094 L 62.34375 71.746094 L 62.671875 71.621094 L 63.082031 71.253906 L 63.246094 70.925781 L 63.328125 70.675781 L 63.367188 69.9375 L 63.289062 69.445312 L 63.082031 69.035156 L 62.917969 68.828125 L 62.546875 68.582031 L 62.382812 68.542969 Z M 61.8125 68.542969 "/>
<path style=" stroke:none;fill-rule:nonzero;fill:rgb(1.568628%,30.19608%,55.686277%);fill-opacity:1;" d="M 68.660156 67.636719 L 69.03125 67.636719 L 69.601562 67.761719 L 69.972656 67.96875 L 70.257812 68.296875 L 70.421875 68.625 L 70.464844 68.789062 L 70.507812 72.484375 L 70.464844 72.527344 L 69.234375 72.566406 L 69.195312 72.527344 L 69.152344 69.199219 L 68.945312 68.789062 L 68.703125 68.664062 L 68.210938 68.664062 L 67.796875 68.910156 L 67.554688 69.242188 L 67.429688 69.527344 L 67.390625 69.816406 L 67.347656 72.527344 L 66.117188 72.566406 L 66.078125 72.527344 L 66.078125 67.761719 L 66.199219 67.722656 L 67.304688 67.761719 L 67.304688 68.253906 L 67.59375 68.089844 L 67.960938 67.84375 L 68.375 67.679688 Z M 68.660156 67.636719 "/>
<path style=" stroke:none;fill-rule:nonzero;fill:rgb(1.568628%,30.19608%,55.686277%);fill-opacity:1;" d="M 56.398438 66.203125 L 57.503906 66.203125 L 57.546875 66.242188 L 57.546875 67.761719 L 58.652344 67.761719 L 58.652344 68.582031 L 58.609375 68.625 L 57.546875 68.625 L 57.585938 71.5 L 57.625 71.621094 L 57.75 71.664062 L 58.324219 71.664062 L 58.652344 71.621094 L 58.652344 72.445312 L 58.570312 72.527344 L 57.832031 72.648438 L 57.382812 72.648438 L 56.890625 72.527344 L 56.640625 72.363281 L 56.398438 72.113281 L 56.3125 71.664062 L 56.3125 68.582031 L 56.148438 68.625 L 55.535156 68.625 L 55.535156 67.722656 L 56.3125 67.722656 Z M 56.398438 66.203125 "/>
<path style=" stroke:none;fill-rule:nonzero;fill:rgb(14.117648%,10.980392%,10.980392%);fill-opacity:1;" d="M 42.246094 7.269531 L 42.410156 7.433594 L 42.617188 7.804688 L 42.574219 7.925781 L 42.367188 7.761719 L 42.246094 7.679688 L 42.246094 7.554688 L 42.082031 7.636719 L 42.164062 7.390625 Z M 42.246094 7.269531 "/>
<path style=" stroke:none;fill-rule:nonzero;fill:rgb(17.254902%,12.941177%,12.54902%);fill-opacity:1;" d="M 71.367188 58.4375 L 71.53125 58.605469 L 71.65625 58.851562 L 71.65625 58.933594 L 71.449219 58.890625 L 71.328125 58.5625 Z M 71.367188 58.4375 "/>
</g>
</svg>
