<?xml version="1.0" encoding="UTF-8"?>
<svg version="1.1" viewBox="0 0 2048 1948" width="512" height="487" xmlns="http://www.w3.org/2000/svg">
<path transform="translate(1658,565)" d="m0 0h5l-1 9-3 5-20 13-16 10-41 26-17 11-19 12-37 24-24 15-17 11-38 24-17 11-19 12-17 11-25 16-47 30-19 12-17 11-44 28-17 11-30 19-25 16-17 11-38 24-17 11-22 14-19 12-20 13-19 12-25 16-47 30-19 12-17 11-25 16-24 15-15 10-16 10-36 23-19 12-25 16-91 58-17 11-72 46-44 28-17 11-24 15-23 15-24 15-17 11-19 12-17 11-25 16-22 14-5 3h-2l2-5 11-19 15-27 14-24 13-23 60-105 6-10 6-11 14-25 13-23 24-42 13-23 12-20 6-11 15-27 14-24 10-18 14-24 15-27 14-24 9-16 13-23 9-16 14-24 13-23 8-14 3-5 9 5 26 17 15 10 14 9 27 18 16 10 42 28-1 4-28 48-17 29-14 24-13 22-1 3 16-8 23-12 28-14 19-10 22-11 19-10 33-17 16-8 33-17 22-11 19-10 22-11 38-20 16-8 19-10 44-22 19-10 28-14 19-10 16-8 35-18 20-10 12-7 23-11 33-17 41-21 43-22 19-10 28-14 19-10 32-16 19-10 15-8 40-20 19-10z" fill="#9C4838"/>
<path transform="translate(1030,177)" d="m0 0 4 4 14 25 40 70 14 25 14 24 14 25 11 19 16 28 15 27 10 17 14 25 56 98 14 25 10 17 13 23 16 28 14 25 6 10-1 3-74 37-19 9-19 10-16 8-21 10-9 5-4-5-9-16-16-27-15-26-17-29-13-22-17-29-15-26-13-22-14-24-1-2-3 5-11 18-28 48-13 22-15 26-51 87-14 23-16-8-23-11-16-8-17-9-23-11-17-9-23-11-24-12-1-4 11-20 15-25 6-12 12-21 15-26 10-17 7-12 6-11 14-25 14-24 28-50 10-17 14-25 14-24 15-27 10-17 13-23 14-25 12-21 15-26 14-25 13-23z" fill="#9C4737"/>
<path transform="translate(1388,806)" d="m0 0 3 1 10 19 14 24 14 25 12 21 13 23 14 24 11 20 14 24 9 16 26 46 16 28 14 25 11 19 16 28 15 26 16 28 15 27 10 17 15 27 12 21 15 26 14 25 14 24 14 25 15 26 7 12v2l-5-1-12-9-18-11-15-10-38-24-25-16-17-11-50-32-20-13-24-15-22-14-69-44-20-13-41-26-69-44-19-12-20-13-41-26-17-11-19-12-17-11-44-28-17-11-19-12-17-11-10-7 3-3 11-6 19-12 25-16 17-11 9-5 16 8 15 8 38 19 19 10 47 24 19 10 16 8-5-9-16-27-12-21-13-22-15-26-9-15-6-9v-3l20-12 20-13 44-28 19-12 17-11 21-13z" fill="#044D8E"/>
<path transform="translate(1032,188)" d="m0 0 5 3 4 2 11 20 40 70 14 25 14 24 14 25 10 17 28 50 10 17 14 25 56 98 14 25 10 17 13 23 16 28 14 25 6 10-1 3-74 37-19 9-19 10-16 8-21 10-9 5-4-5-9-16-16-27-15-26-17-29-13-22-17-29-15-26-13-22-14-24-2-4v-308z" fill="#044D8E"/>
<path transform="translate(401,565)" d="m0 0 9 3 30 15 19 10 27 14 26 13 19 10 28 14 19 10 22 11 19 10 45 23 16 8 25 13 19 10 28 14 19 10 22 11 19 10 20 10 19 10 34 17 19 10 41 21 28 14v2l-16 8-33 17-16 8-7 4-11-6-22-14-23-15-18-11-20-13-22-14-17-11-66-42-17-11-24-15-22-14-25-16-17-11-19-12-50-32-19-12-39-25-34-22-24-15-9-7-3-6z" fill="#054E8E"/>
<path transform="translate(353,1596)" d="m0 0h66l17 3 12 5 10 8 5 9 3 11v9l-3 10-6 9-8 7-9 5-4 2 16 5 14 7 7 7 5 10 2 8v10l-3 12-7 11-8 8-14 8-13 4-12 2-12 1h-57l-1-1zm33 23-1 1v46l27-1 9-4 8-7 3-7 1-9-3-9-7-7-7-2zm-1 70-1 5v48l2 2 31-1 12-3 8-4 7-8 3-8v-10l-5-10-7-6-7-3-5-1-25-1z" fill="#A54836"/>
<path transform="translate(657,1596)" d="m0 0h67l16 3 12 5 11 8 9 10 8 16 4 14 2 14v28l-3 18-5 13-7 12-8 10-8 7-16 8-13 3-21 2h-48zm32 23-1 4v120l1 1h17l14-2 10-4 9-7 4-5 5-11 4-16 1-7v-28l-4-16-4-10-6-8-8-6-11-4z" fill="#A54836"/>
<path transform="translate(873,1594)" d="m0 0h25l16 4 16 8 11 10 9 14 6 14 3 11 2 16v16l-3 22-7 21-6 10-9 10-8 7-14 7-15 4-7 1h-15l-16-3-12-5-11-8-9-9-7-11-6-14-4-16v-36l3-16 5-15 8-15 9-10 7-6 14-7 9-3zm6 24-11 4-8 6-6 8-5 10-5 21v29l4 17 5 13 8 10 10 6 10 3h12l11-4 10-9 6-9 5-14 3-18v-21l-2-15-4-13-5-9-7-8-8-5-7-2z" fill="#A54836"/>
<path transform="translate(235,1596)" d="m0 0h31l3 6 12 36 19 55 13 37 11 32v4l-3 1h-31l-3-8-12-39v-2l-50 1-12 36-3 11-2 1h-28l-3-1 2-9 14-40 17-50 14-40 10-30zm13 44-15 49-1 5 1 1h34l-2-9-12-38-3-8z" fill="#A54836"/>
<path transform="translate(1038,1594)" d="m0 0h26l19 5 11 5 1 2v28l-5-2-15-8-12-4h-20l-9 3-5 4h-2l-4 8v10l4 7 7 6 21 8 18 6 16 8 10 9 6 10 2 6 1 11-2 12-6 12-9 10-9 7-14 7-17 4-9 1h-12l-17-3-18-6-7-5v-29l4 2 15 9 14 6 13 2 13-1 12-5 8-6 5-8 1-4v-9l-4-8-8-7-14-6-27-9-12-6-10-9-7-10-3-10 1-13 5-13 7-9 8-7 16-8z" fill="#A54836"/>
<path transform="translate(1269,1594)" d="m0 0h23l14 3 17 6 1 1 1 30-5-2-16-8-12-4-13-1-11 2-8 4-6 7-2 4v9l6 9 10 6 20 7 18 7 15 8 7 6 7 14 2 9v8l-3 12-5 10-6 7-12 9-12 6-14 4-13 2h-11l-18-3-21-7-4-4v-29l5 2 8 6 16 8 7 2 8 1h9l12-3 10-6 3-1 6-12 1-3v-7l-4-9-7-6-13-6-27-9-16-8-10-9-6-10-2-7v-13l4-13 6-9 9-8 15-8 10-3z" fill="#044D8E"/>
<path transform="translate(1811,1647)" d="m0 0h9l14 2 12 5 8 6 8 9 5 11 3 13v15l-1 1h-86l3 14 5 9 8 7 8 4 4 1h14l13-4 14-7 11-8 2 1-1 29-10 5-18 6-17 3h-11l-16-3-10-4-11-8-7-7-8-14-4-14v-19l4-16 7-12 8-9 13-9 9-4 9-2zm-3 22-9 4-12 12-1 4h53l-1-5-6-10-6-4-3-1z" fill="#044D8E"/>
<path transform="translate(492,1596)" d="m0 0h37l14 30 15 33 2 1 2-6 29-58h37l-2 5-11 20-13 22-13 23-12 20-1 3-1 49-1 28-1 1h-30l-1-5v-49l-1-26-9-17-12-21-14-25-13-24z" fill="#A54836"/>
<path transform="translate(1509,1647)" d="m0 0h9l15 2 11 4 14 9 8 9 7 14 3 14v16l-2 12-5 13-8 10-10 9-10 5-15 4-6 1h-14l-15-3-16-8-10-9-7-11-4-10-3-14v-10l3-15 5-12 7-11 9-8 9-5 10-4zm-2 22-8 3-7 6-5 8-4 14v17l2 9 6 11 7 6 9 4h13l8-3 10-9 4-8 2-6 1-18-2-12-5-10-4-5-9-6-4-1z" fill="#044D8E"/>
<path transform="translate(1674,1647)" d="m0 0h9l14 3 9 5 7 8 4 8 1 4 1 90-1 1-30 1-1-1-1-81-5-10-6-3h-12l-10 6-6 8-3 7-1 7-1 66-30 1-1-1v-116l3-1 27 1v12l7-4 9-6 10-4z" fill="#044D8E"/>
<path transform="translate(1375,1612)" d="m0 0h27l1 1v37h27v20l-1 1h-26l1 70 1 3 3 1h14l8-1v20l-2 2-18 3h-11l-12-3-6-4-6-6-2-11v-75l-4 1h-15v-22h19z" fill="#044D8E"/>
<path transform="translate(1030,177)" d="m0 0 4 4 5 9-1 3-5-4-3-2v-3l-4 2 2-6z" fill="#241C1C"/>
<path transform="translate(1740,1423)" d="m0 0 4 4 3 6v2l-5-1-3-8z" fill="#2C2120"/>
</svg>
